<svg width="16" height="16" viewBox="0 0 16 16" fill="none" xmlns="http://www.w3.org/2000/svg">
<path fill-rule="evenodd" clip-rule="evenodd" d="M7.90011 7.49502L10.3001 4.99502L11.0001 5.69502L8.60011 8.19502L11.0001 10.695L10.3001 11.395L7.90011 8.89502L5.50011 11.395L4.80011 10.695L7.20011 8.19502L4.80011 5.69502L5.50011 4.99502L7.90011 7.49502ZM9.10012 13.895C10.4001 13.595 11.6001 12.895 12.5001 11.795C13.3001 10.695 13.8001 9.39501 13.7001 7.99501C13.7001 6.39501 13.1001 4.79501 12.0001 3.69501C11.0001 2.69501 9.80012 2.09501 8.40012 1.99501C7.10012 1.89501 5.70012 2.19501 4.60012 2.99501C3.50012 3.79501 2.70012 4.89501 2.30012 6.29501C1.90012 7.59501 1.90012 8.99501 2.50012 10.295C3.10012 11.595 4.00012 12.595 5.20012 13.295C6.40012 13.995 7.80012 14.195 9.10012 13.895ZM8.60012 0.995011C10.2001 1.09501 11.7001 1.89501 12.8001 2.99501C14.1001 4.39501 14.8001 6.09501 14.8001 8.09501C14.8001 9.69501 14.2001 11.195 13.2001 12.495C12.2001 13.695 10.8001 14.595 9.20012 14.895C7.60012 15.195 6.00012 14.995 4.60012 14.195C3.20012 13.395 2.10012 12.195 1.50012 10.695C0.90012 9.19501 0.80012 7.49501 1.30012 5.99501C1.80012 4.39501 2.70012 3.09501 4.10012 2.19501C5.40012 1.29501 7.00012 0.895011 8.60012 0.995011Z" fill="#A1260D"/>
</svg>

