<svg width="15" height="14" viewBox="0 0 15 14" fill="none" xmlns="http://www.w3.org/2000/svg">
<path fill-rule="evenodd" clip-rule="evenodd" d="M8.62628 6.00391V10.0039H7.37628V6.00391H8.62628ZM7.37628 5.00391H8.62628V4.00391H7.37628V5.00391ZM9.04134 12.8838C10.3842 12.6114 11.59 11.8795 12.4513 10.8139C13.3839 9.65481 13.8584 8.19352 13.7847 6.70767C13.7109 5.22182 13.0941 3.8148 12.0513 2.7538C11.0962 1.7788 9.82875 1.1706 8.4706 1.0353C7.11245 0.9 5.74997 1.2464 4.62134 2.0138C3.77174 2.5992 3.08574 3.3918 2.62824 4.31656C2.17064 5.24129 1.95684 6.2675 2.00684 7.298C2.05694 8.32851 2.36934 9.32922 2.91434 10.2052C3.45934 11.0812 4.21894 11.8036 5.1213 12.3039C6.31962 12.9506 7.70708 13.1558 9.04134 12.8838ZM8.56966 0.0351995C10.1608 0.1943 11.6449 0.9091 12.7613 2.0539C13.9776 3.2895 14.6967 4.92943 14.7816 6.66116C14.8664 8.3929 14.311 10.0952 13.2213 11.4438C12.2191 12.6896 10.8126 13.5455 9.24557 13.8633C7.67855 14.1811 6.04972 13.9408 4.64134 13.1839C3.22994 12.4106 2.12804 11.1745 1.52134 9.68387C0.911839 8.18557 0.830739 6.52433 1.29134 4.97379C1.75084 3.4293 2.72924 2.0907 4.06134 1.1839C5.3823 0.2828 6.97857 -0.1239 8.56966 0.0351995Z" fill="#007ACC"/>
</svg>

